<?xml version="1.0" encoding="utf-8"?>
<!DOCTYPE svg PUBLIC "-//W3C//DTD SVG 1.1//EN" "http://www.w3.org/Graphics/SVG/1.1/DTD/svg11.dtd">
<svg width="35px" height="35px" viewBox="0 0 35 35" xmlns="http://www.w3.org/2000/svg">
	<circle fill="#dbdcdc" cx="17.5" cy="17.5" r="17.5"/>
	<path fill="#ffffff" d="M29.113,11.289c-0.832,0.369-1.727,0.617-2.665,0.73c0.958-0.574,1.694-1.484,2.04-2.567c-0.896,0.531-1.889,0.918-2.945,1.125c-0.847-0.901-2.053-1.464-3.387-1.464c-2.563,0-4.641,2.078-4.641,4.638c0,0.363,0.041,0.719,0.121,1.059c-3.855-0.193-7.274-2.041-9.563-4.847c-0.399,0.685-0.628,1.482-0.628,2.332c0,1.609,0.819,3.029,2.064,3.861c-0.761-0.023-1.476-0.232-2.102-0.58c0,0.02,0,0.039,0,0.059c0,2.248,1.599,4.123,3.723,4.549c-0.391,0.105-0.801,0.164-1.224,0.164c-0.299,0-0.589-0.029-0.873-0.084c0.591,1.842,2.304,3.184,4.334,3.221c-1.587,1.246-3.588,1.986-5.762,1.986c-0.374,0-0.743-0.021-1.106-0.064c2.053,1.316,4.492,2.084,7.112,2.084c8.533,0,13.199-7.068,13.199-13.199c0-0.201-0.005-0.4-0.013-0.6C27.705,13.035,28.491,12.219,29.113,11.289"/>
</svg>
