<?xml version="1.0" encoding="utf-8"?>
<!-- Generator: Adobe Illustrator 15.0.2, SVG Export Plug-In . SVG Version: 6.00 Build 0)  -->
<!DOCTYPE svg PUBLIC "-//W3C//DTD SVG 1.1//EN" "http://www.w3.org/Graphics/SVG/1.1/DTD/svg11.dtd">
<svg version="1.1" id="レイヤー_1" xmlns="http://www.w3.org/2000/svg" xmlns:xlink="http://www.w3.org/1999/xlink" x="0px"
	 y="0px" width="18px" height="18px" viewBox="0 0 18 18" enable-background="new 0 0 18 18" xml:space="preserve">
<path fill="#0097D8" d="M-72.029-1.588l-2.049-2.395c-0.27-0.352-0.641-0.508-0.873-0.387l-2.564-2.986
	c0.158-0.184,0.178-0.457,0.016-0.666l-1.201-1.572c-0.17-0.221-0.465-0.273-0.686-0.141l-1.096-1.39
	c1.07-0.824,1.756-1.408,3.342-0.69c0,0,1.742-1.314,0.479-3.403c-1.479-2.446-3.595-1.78-3.595-1.78
	c0.302,1.787-0.751,2.427-1.961,3.305c-0.059-0.049-0.123-0.109-0.191-0.182l-3.028-2.315l1.592,3.306
	c-0.055,0.024-0.108,0.059-0.166,0.08c-1.218,0.435-3.438,0.675-4.204-1.209c0,0-2.255,3.439,0.933,6.849
	c2.086,2.23,5.388,1.311,5.388,1.311c-0.828-1.346-0.541-3.275,0.279-4.383l1.103,1.401c-0.099,0.176-0.089,0.411,0.049,0.59
	l1.202,1.572c0.148,0.193,0.391,0.252,0.598,0.186l2.416,3.043c-0.072,0.217,0.008,0.537,0.225,0.82l1.92,2.656
	c0.283,0.373,0.697,0.533,0.922,0.363l1.264-0.996C-71.695-0.771-71.742-1.213-72.029-1.588z"/>
<path fill="#FFFFFF" stroke="#0097D8" stroke-width="0.7433" stroke-miterlimit="10" d="M-23.165-16.414
	c0.73-0.423,1.578-0.666,2.482-0.666c2.737,0,4.955,2.218,4.955,4.956c0,2.736-2.218,4.954-4.955,4.954
	c-2.285,0-4.208-1.546-4.781-3.649"/>
<ellipse fill="#0097D8" cx="-36.987" cy="16.298" rx="5.027" ry="1.556"/>
<ellipse fill="#0097D8" cx="-36.987" cy="17.36" rx="5.583" ry="1.418"/>
<ellipse fill="#0097D8" cx="-36.987" cy="18.148" rx="5.857" ry="1.387"/>
<circle fill="#FFFFFF" stroke="#0097D8" stroke-width="1.0089" stroke-miterlimit="10" cx="-37.073" cy="10.316" r="6.726"/>
<path fill="#FFFFFF" stroke="#0097D8" stroke-miterlimit="10" d="M-41.36,10.161c0.185-1.839,1.344-3.345,2.915-4.056"/>
<path fill="#FFFFFF" stroke="#0097D8" stroke-width="1.0089" stroke-miterlimit="10" d="M-41.469,15.714c0,0,4.545,1.412,8.792,0"/>
<path fill="#0097D8" d="M22.93-28.204l0.089,0.119c0.348-0.453,0.78-0.864,1.275-1.134l-0.004-0.006
	c1.285-0.947,2.11-1.619,3.968-0.732c0,0,2.092-1.51,0.651-4.01c-1.687-2.931-4.207-2.195-4.207-2.195
	c0.313,2.121-0.947,2.85-2.4,3.86c-0.045-0.04-0.097-0.095-0.146-0.147c-0.02,0.011-0.031,0.031-0.053,0.039l-0.031,0.013
	c-0.117,0.305-0.354,0.568-0.76,0.681c-0.355,0.1-0.448,0.202-0.787,0.198l-0.168,0.13c-0.064,0.027-0.129,0.067-0.197,0.091
	c-1.451,0.482-4.08,0.711-4.939-1.536c0,0-2.753,4.008,0.932,8.121c2.41,2.688,6.336,1.683,6.336,1.683
	C21.544-24.642,21.932-26.916,22.93-28.204z"/>
<polygon fill="#0097D8" points="17.352,15.52 14.691,17.534 5.811,3.922 5.343,0.842 7.559,2.597 "/>
<path fill="#0097D8" d="M19.762-7.529l15.922-5.771l0.607,1.761L26.546,0.842C26.546,0.842,21.605-0.64,19.762-7.529z"/>
<path fill="#0097D8" d="M12.721,0.356c0,3.629-5.547,6.572-11.156,6.572c-0.319,0-0.634-0.012-0.947-0.031
	c-0.024,0.264-0.04,0.53-0.04,0.8c0,4.02,2.812,7.377,6.574,8.229c0.426-4.264,4.01-8.191,8.454-8.386
	c0.643-0.028,1.215-0.131,1.816,0.005C17.422,2.498,12.721,0.129,12.721,0.356z"/>
</svg>
